<mxfile host="Electron" agent="Mozilla/5.0 (X11; Linux x86_64) AppleWebKit/537.36 (KHTML, like Gecko) draw.io/24.7.8 Chrome/128.0.6613.36 Electron/32.0.1 Safari/537.36" version="24.7.8">
  <diagram name="Page-1" id="z6jvukjGJUcQWXiJhKep">
    <mxGraphModel dx="1215" dy="1426" grid="1" gridSize="10" guides="1" tooltips="1" connect="1" arrows="1" fold="1" page="1" pageScale="1" pageWidth="1100" pageHeight="850" math="0" shadow="0">
      <root>
        <mxCell id="0" />
        <mxCell id="1" parent="0" />
        <mxCell id="aocR1VVrdAfz1J4lHtZ3-16" style="rounded=0;orthogonalLoop=1;jettySize=auto;html=1;exitX=1;exitY=0.5;exitDx=0;exitDy=0;entryX=0;entryY=0.5;entryDx=0;entryDy=0;" edge="1" parent="1" source="aocR1VVrdAfz1J4lHtZ3-2" target="aocR1VVrdAfz1J4lHtZ3-12">
          <mxGeometry relative="1" as="geometry" />
        </mxCell>
        <mxCell id="aocR1VVrdAfz1J4lHtZ3-21" style="rounded=0;orthogonalLoop=1;jettySize=auto;html=1;exitX=1;exitY=0.5;exitDx=0;exitDy=0;entryX=0;entryY=0.5;entryDx=0;entryDy=0;" edge="1" parent="1" source="aocR1VVrdAfz1J4lHtZ3-2" target="aocR1VVrdAfz1J4lHtZ3-13">
          <mxGeometry relative="1" as="geometry" />
        </mxCell>
        <mxCell id="aocR1VVrdAfz1J4lHtZ3-25" style="rounded=0;orthogonalLoop=1;jettySize=auto;html=1;exitX=0.5;exitY=0;exitDx=0;exitDy=0;entryX=0;entryY=0.5;entryDx=0;entryDy=0;" edge="1" parent="1" source="aocR1VVrdAfz1J4lHtZ3-2" target="aocR1VVrdAfz1J4lHtZ3-24">
          <mxGeometry relative="1" as="geometry" />
        </mxCell>
        <mxCell id="aocR1VVrdAfz1J4lHtZ3-27" value="Optional, for self-taught" style="edgeLabel;html=1;align=center;verticalAlign=middle;resizable=0;points=[];" vertex="1" connectable="0" parent="aocR1VVrdAfz1J4lHtZ3-25">
          <mxGeometry x="-0.0327" y="6" relative="1" as="geometry">
            <mxPoint x="51" y="22" as="offset" />
          </mxGeometry>
        </mxCell>
        <mxCell id="aocR1VVrdAfz1J4lHtZ3-37" style="edgeStyle=orthogonalEdgeStyle;rounded=0;orthogonalLoop=1;jettySize=auto;html=1;exitX=0.5;exitY=0;exitDx=0;exitDy=0;entryX=0.5;entryY=1;entryDx=0;entryDy=0;" edge="1" parent="1" source="aocR1VVrdAfz1J4lHtZ3-2" target="aocR1VVrdAfz1J4lHtZ3-3">
          <mxGeometry relative="1" as="geometry" />
        </mxCell>
        <mxCell id="aocR1VVrdAfz1J4lHtZ3-2" value="Programmer" style="whiteSpace=wrap;html=1;aspect=fixed;" vertex="1" parent="1">
          <mxGeometry x="200" y="140" width="80" height="80" as="geometry" />
        </mxCell>
        <mxCell id="aocR1VVrdAfz1J4lHtZ3-18" style="rounded=0;orthogonalLoop=1;jettySize=auto;html=1;exitX=1;exitY=0.5;exitDx=0;exitDy=0;entryX=0;entryY=0.75;entryDx=0;entryDy=0;" edge="1" parent="1" source="aocR1VVrdAfz1J4lHtZ3-3" target="aocR1VVrdAfz1J4lHtZ3-12">
          <mxGeometry relative="1" as="geometry" />
        </mxCell>
        <mxCell id="aocR1VVrdAfz1J4lHtZ3-20" style="rounded=0;orthogonalLoop=1;jettySize=auto;html=1;exitX=1;exitY=0.5;exitDx=0;exitDy=0;entryX=0;entryY=0.5;entryDx=0;entryDy=0;" edge="1" parent="1" source="aocR1VVrdAfz1J4lHtZ3-3" target="aocR1VVrdAfz1J4lHtZ3-15">
          <mxGeometry relative="1" as="geometry" />
        </mxCell>
        <mxCell id="aocR1VVrdAfz1J4lHtZ3-3" value="CS Professor" style="whiteSpace=wrap;html=1;aspect=fixed;" vertex="1" parent="1">
          <mxGeometry x="200" y="10" width="80" height="80" as="geometry" />
        </mxCell>
        <mxCell id="aocR1VVrdAfz1J4lHtZ3-50" style="edgeStyle=orthogonalEdgeStyle;rounded=0;orthogonalLoop=1;jettySize=auto;html=1;exitX=0.5;exitY=0;exitDx=0;exitDy=0;entryX=0.5;entryY=1;entryDx=0;entryDy=0;" edge="1" parent="1" source="aocR1VVrdAfz1J4lHtZ3-4" target="aocR1VVrdAfz1J4lHtZ3-48">
          <mxGeometry relative="1" as="geometry" />
        </mxCell>
        <mxCell id="aocR1VVrdAfz1J4lHtZ3-62" style="rounded=0;orthogonalLoop=1;jettySize=auto;html=1;exitX=1;exitY=0.5;exitDx=0;exitDy=0;entryX=0;entryY=0.5;entryDx=0;entryDy=0;" edge="1" parent="1" source="aocR1VVrdAfz1J4lHtZ3-4" target="aocR1VVrdAfz1J4lHtZ3-53">
          <mxGeometry relative="1" as="geometry" />
        </mxCell>
        <mxCell id="aocR1VVrdAfz1J4lHtZ3-63" style="rounded=0;orthogonalLoop=1;jettySize=auto;html=1;exitX=1;exitY=0.5;exitDx=0;exitDy=0;entryX=0;entryY=0.5;entryDx=0;entryDy=0;" edge="1" parent="1" source="aocR1VVrdAfz1J4lHtZ3-4" target="aocR1VVrdAfz1J4lHtZ3-52">
          <mxGeometry relative="1" as="geometry" />
        </mxCell>
        <mxCell id="aocR1VVrdAfz1J4lHtZ3-4" value="Mathematician" style="whiteSpace=wrap;html=1;aspect=fixed;" vertex="1" parent="1">
          <mxGeometry x="200" y="620" width="80" height="80" as="geometry" />
        </mxCell>
        <mxCell id="aocR1VVrdAfz1J4lHtZ3-33" style="edgeStyle=orthogonalEdgeStyle;rounded=0;orthogonalLoop=1;jettySize=auto;html=1;exitX=0.5;exitY=0;exitDx=0;exitDy=0;entryX=0.5;entryY=1;entryDx=0;entryDy=0;" edge="1" parent="1" source="aocR1VVrdAfz1J4lHtZ3-5" target="aocR1VVrdAfz1J4lHtZ3-2">
          <mxGeometry relative="1" as="geometry" />
        </mxCell>
        <mxCell id="aocR1VVrdAfz1J4lHtZ3-5" value="Data Engineer" style="whiteSpace=wrap;html=1;aspect=fixed;" vertex="1" parent="1">
          <mxGeometry x="200" y="280" width="80" height="80" as="geometry" />
        </mxCell>
        <mxCell id="aocR1VVrdAfz1J4lHtZ3-36" style="edgeStyle=orthogonalEdgeStyle;rounded=0;orthogonalLoop=1;jettySize=auto;html=1;exitX=0.5;exitY=0;exitDx=0;exitDy=0;entryX=0.5;entryY=1;entryDx=0;entryDy=0;" edge="1" parent="1" source="aocR1VVrdAfz1J4lHtZ3-6" target="aocR1VVrdAfz1J4lHtZ3-2">
          <mxGeometry relative="1" as="geometry" />
        </mxCell>
        <mxCell id="aocR1VVrdAfz1J4lHtZ3-6" value="Data Scientist" style="whiteSpace=wrap;html=1;aspect=fixed;" vertex="1" parent="1">
          <mxGeometry x="80" y="280" width="80" height="80" as="geometry" />
        </mxCell>
        <mxCell id="aocR1VVrdAfz1J4lHtZ3-35" style="edgeStyle=orthogonalEdgeStyle;rounded=0;orthogonalLoop=1;jettySize=auto;html=1;exitX=0.5;exitY=0;exitDx=0;exitDy=0;entryX=0.5;entryY=1;entryDx=0;entryDy=0;" edge="1" parent="1" source="aocR1VVrdAfz1J4lHtZ3-7" target="aocR1VVrdAfz1J4lHtZ3-2">
          <mxGeometry relative="1" as="geometry" />
        </mxCell>
        <mxCell id="aocR1VVrdAfz1J4lHtZ3-7" value="Cloud Architect" style="whiteSpace=wrap;html=1;aspect=fixed;" vertex="1" parent="1">
          <mxGeometry x="320" y="280" width="80" height="80" as="geometry" />
        </mxCell>
        <mxCell id="aocR1VVrdAfz1J4lHtZ3-17" style="rounded=0;orthogonalLoop=1;jettySize=auto;html=1;exitX=1;exitY=0.5;exitDx=0;exitDy=0;entryX=0;entryY=0.5;entryDx=0;entryDy=0;" edge="1" parent="1" source="aocR1VVrdAfz1J4lHtZ3-12">
          <mxGeometry relative="1" as="geometry">
            <mxPoint x="970" y="255" as="targetPoint" />
          </mxGeometry>
        </mxCell>
        <mxCell id="aocR1VVrdAfz1J4lHtZ3-19" style="rounded=0;orthogonalLoop=1;jettySize=auto;html=1;exitX=1;exitY=0.75;exitDx=0;exitDy=0;entryX=0;entryY=0.75;entryDx=0;entryDy=0;" edge="1" parent="1" source="aocR1VVrdAfz1J4lHtZ3-12">
          <mxGeometry relative="1" as="geometry">
            <mxPoint x="970" y="317.5" as="targetPoint" />
          </mxGeometry>
        </mxCell>
        <mxCell id="aocR1VVrdAfz1J4lHtZ3-12" value="Driver&#39;s License or other ID" style="rounded=0;whiteSpace=wrap;html=1;" vertex="1" parent="1">
          <mxGeometry x="630" y="270" width="120" height="200" as="geometry" />
        </mxCell>
        <mxCell id="aocR1VVrdAfz1J4lHtZ3-13" value="Bachelor&#39;s Degree" style="rounded=0;whiteSpace=wrap;html=1;" vertex="1" parent="1">
          <mxGeometry x="630" y="90" width="120" height="80" as="geometry" />
        </mxCell>
        <mxCell id="aocR1VVrdAfz1J4lHtZ3-43" style="edgeStyle=orthogonalEdgeStyle;rounded=0;orthogonalLoop=1;jettySize=auto;html=1;exitX=1;exitY=0.5;exitDx=0;exitDy=0;entryX=0.5;entryY=0;entryDx=0;entryDy=0;" edge="1" parent="1" source="aocR1VVrdAfz1J4lHtZ3-15" target="aocR1VVrdAfz1J4lHtZ3-39">
          <mxGeometry relative="1" as="geometry" />
        </mxCell>
        <mxCell id="aocR1VVrdAfz1J4lHtZ3-15" value="Doctorate Degree" style="rounded=0;whiteSpace=wrap;html=1;" vertex="1" parent="1">
          <mxGeometry x="630" width="120" height="80" as="geometry" />
        </mxCell>
        <mxCell id="aocR1VVrdAfz1J4lHtZ3-38" style="rounded=0;orthogonalLoop=1;jettySize=auto;html=1;exitX=1;exitY=0.5;exitDx=0;exitDy=0;entryX=0;entryY=0.5;entryDx=0;entryDy=0;" edge="1" parent="1" source="aocR1VVrdAfz1J4lHtZ3-24">
          <mxGeometry relative="1" as="geometry">
            <mxPoint x="970" y="255" as="targetPoint" />
          </mxGeometry>
        </mxCell>
        <mxCell id="aocR1VVrdAfz1J4lHtZ3-24" value="Portfolio" style="rounded=0;whiteSpace=wrap;html=1;" vertex="1" parent="1">
          <mxGeometry x="630" y="180" width="120" height="80" as="geometry" />
        </mxCell>
        <mxCell id="aocR1VVrdAfz1J4lHtZ3-47" style="edgeStyle=orthogonalEdgeStyle;rounded=0;orthogonalLoop=1;jettySize=auto;html=1;exitX=0.5;exitY=1;exitDx=0;exitDy=0;entryX=0.5;entryY=0;entryDx=0;entryDy=0;" edge="1" parent="1" source="aocR1VVrdAfz1J4lHtZ3-39" target="aocR1VVrdAfz1J4lHtZ3-40">
          <mxGeometry relative="1" as="geometry" />
        </mxCell>
        <mxCell id="aocR1VVrdAfz1J4lHtZ3-39" value="Programming" style="rounded=0;whiteSpace=wrap;html=1;" vertex="1" parent="1">
          <mxGeometry x="970" y="105" width="110" height="250" as="geometry" />
        </mxCell>
        <mxCell id="aocR1VVrdAfz1J4lHtZ3-40" value="Mathematics" style="rounded=0;whiteSpace=wrap;html=1;" vertex="1" parent="1">
          <mxGeometry x="970" y="510" width="110" height="250" as="geometry" />
        </mxCell>
        <mxCell id="aocR1VVrdAfz1J4lHtZ3-45" style="edgeStyle=orthogonalEdgeStyle;rounded=0;orthogonalLoop=1;jettySize=auto;html=1;exitX=1;exitY=0.5;exitDx=0;exitDy=0;entryX=0.027;entryY=0.14;entryDx=0;entryDy=0;entryPerimeter=0;" edge="1" parent="1" source="aocR1VVrdAfz1J4lHtZ3-13" target="aocR1VVrdAfz1J4lHtZ3-39">
          <mxGeometry relative="1" as="geometry" />
        </mxCell>
        <mxCell id="aocR1VVrdAfz1J4lHtZ3-56" style="edgeStyle=orthogonalEdgeStyle;rounded=0;orthogonalLoop=1;jettySize=auto;html=1;exitX=1;exitY=0.5;exitDx=0;exitDy=0;entryX=0;entryY=0.5;entryDx=0;entryDy=0;" edge="1" parent="1" source="aocR1VVrdAfz1J4lHtZ3-48" target="aocR1VVrdAfz1J4lHtZ3-54">
          <mxGeometry relative="1" as="geometry" />
        </mxCell>
        <mxCell id="aocR1VVrdAfz1J4lHtZ3-64" style="rounded=0;orthogonalLoop=1;jettySize=auto;html=1;exitX=1;exitY=0.5;exitDx=0;exitDy=0;entryX=0;entryY=0.5;entryDx=0;entryDy=0;" edge="1" parent="1" source="aocR1VVrdAfz1J4lHtZ3-48" target="aocR1VVrdAfz1J4lHtZ3-52">
          <mxGeometry relative="1" as="geometry" />
        </mxCell>
        <mxCell id="aocR1VVrdAfz1J4lHtZ3-48" value="Math Professor" style="whiteSpace=wrap;html=1;aspect=fixed;" vertex="1" parent="1">
          <mxGeometry x="200" y="510" width="80" height="80" as="geometry" />
        </mxCell>
        <mxCell id="aocR1VVrdAfz1J4lHtZ3-67" style="edgeStyle=none;rounded=0;orthogonalLoop=1;jettySize=auto;html=1;exitX=1;exitY=0.5;exitDx=0;exitDy=0;entryX=0;entryY=0.5;entryDx=0;entryDy=0;" edge="1" parent="1" source="aocR1VVrdAfz1J4lHtZ3-52" target="aocR1VVrdAfz1J4lHtZ3-40">
          <mxGeometry relative="1" as="geometry" />
        </mxCell>
        <mxCell id="aocR1VVrdAfz1J4lHtZ3-52" value="Driver&#39;s License or other ID" style="rounded=0;whiteSpace=wrap;html=1;" vertex="1" parent="1">
          <mxGeometry x="630" y="690" width="120" height="200" as="geometry" />
        </mxCell>
        <mxCell id="aocR1VVrdAfz1J4lHtZ3-66" style="edgeStyle=none;rounded=0;orthogonalLoop=1;jettySize=auto;html=1;exitX=1;exitY=0.5;exitDx=0;exitDy=0;entryX=0;entryY=0.5;entryDx=0;entryDy=0;" edge="1" parent="1" source="aocR1VVrdAfz1J4lHtZ3-53" target="aocR1VVrdAfz1J4lHtZ3-40">
          <mxGeometry relative="1" as="geometry" />
        </mxCell>
        <mxCell id="aocR1VVrdAfz1J4lHtZ3-53" value="Bachelor&#39;s Degree" style="rounded=0;whiteSpace=wrap;html=1;" vertex="1" parent="1">
          <mxGeometry x="630" y="600" width="120" height="80" as="geometry" />
        </mxCell>
        <mxCell id="aocR1VVrdAfz1J4lHtZ3-65" style="edgeStyle=none;rounded=0;orthogonalLoop=1;jettySize=auto;html=1;exitX=1;exitY=0.5;exitDx=0;exitDy=0;entryX=0;entryY=0.5;entryDx=0;entryDy=0;" edge="1" parent="1" source="aocR1VVrdAfz1J4lHtZ3-54" target="aocR1VVrdAfz1J4lHtZ3-40">
          <mxGeometry relative="1" as="geometry" />
        </mxCell>
        <mxCell id="aocR1VVrdAfz1J4lHtZ3-54" value="Doctorate Degree" style="rounded=0;whiteSpace=wrap;html=1;" vertex="1" parent="1">
          <mxGeometry x="630" y="510" width="120" height="80" as="geometry" />
        </mxCell>
        <mxCell id="aocR1VVrdAfz1J4lHtZ3-61" style="edgeStyle=orthogonalEdgeStyle;rounded=0;orthogonalLoop=1;jettySize=auto;html=1;exitX=0.5;exitY=0;exitDx=0;exitDy=0;entryX=0.5;entryY=1;entryDx=0;entryDy=0;" edge="1" parent="1" source="aocR1VVrdAfz1J4lHtZ3-60" target="aocR1VVrdAfz1J4lHtZ3-4">
          <mxGeometry relative="1" as="geometry" />
        </mxCell>
        <mxCell id="aocR1VVrdAfz1J4lHtZ3-60" value="Statistician" style="whiteSpace=wrap;html=1;aspect=fixed;" vertex="1" parent="1">
          <mxGeometry x="200" y="740" width="80" height="80" as="geometry" />
        </mxCell>
      </root>
    </mxGraphModel>
  </diagram>
</mxfile>
